<?xml version="1.0" standalone="no"?>
<!DOCTYPE svg PUBLIC "-//W3C//DTD SVG 20010904//EN"
 "http://www.w3.org/TR/2001/REC-SVG-20010904/DTD/svg10.dtd">
<svg version="1.0" xmlns="http://www.w3.org/2000/svg"
 width="350.000000pt" height="350.000000pt" viewBox="0 0 350.000000 350.000000"
 preserveAspectRatio="xMidYMid meet">

<g transform="translate(0.000000,350.000000) scale(0.100000,-0.100000)"
fill="#000000" stroke="none">
<path d="M0 1750 l0 -1750 1750 0 1750 0 0 1750 0 1750 -1750 0 -1750 0 0
-1750z m1814 1508 c32 -28 48 -104 44 -203 l-3 -70 427 -5 c477 -6 457 -2 478
-79 13 -46 13 -1011 0 -1066 -5 -22 -21 -50 -35 -62 l-26 -23 -945 0 c-1023 0
-985 -2 -1016 53 -10 17 -14 140 -16 527 -2 278 0 524 3 548 3 23 17 55 30 70
l23 27 429 5 428 5 -3 72 c-5 99 13 177 45 203 36 28 104 27 137 -2z m-241
-1709 c26 -7 44 -21 57 -42 19 -31 20 -55 20 -615 0 -624 0 -625 -49 -652 -37
-19 -97 -12 -130 16 l-31 26 0 522 c0 315 -4 526 -9 531 -6 6 -89 9 -200 7
l-189 -3 -4 -167 c-3 -178 -9 -200 -55 -221 -60 -27 -125 -4 -148 53 -16 39
-14 471 3 502 10 18 36 36 72 47 31 11 625 7 663 -4z m1049 -12 c14 -10 29
-26 33 -35 4 -9 8 -118 10 -242 3 -241 -2 -273 -46 -304 -37 -25 -101 -21
-131 9 -34 33 -38 61 -38 231 l0 144 -197 -2 -198 -3 -3 -525 -2 -524 -27 -28
c-48 -50 -139 -35 -172 29 -8 15 -11 195 -11 605 0 561 1 584 20 615 12 20 32
36 52 42 19 6 170 9 358 8 295 -2 327 -4 352 -20z"/>
<path d="M940 2765 c0 -3 0 -184 0 -402 l0 -398 805 0 805 0 0 400 0 400 -805
3 c-443 1 -805 0 -805 -3z m471 -324 c48 -48 37 -136 -20 -166 -93 -47 -185
36 -146 131 28 69 114 87 166 35z m798 13 c30 -22 50 -71 44 -112 -7 -41 -54
-82 -94 -82 -37 0 -85 24 -99 49 -13 25 -13 87 0 111 24 46 106 64 149 34z"/>
</g>
</svg>
